<?xml version="1.0" encoding="UTF-8"?>
<svg version="1.1" xmlns="http://www.w3.org/2000/svg" width="512" height="512">
<path d="M0 0 C168.96 0 337.92 0 512 0 C512 168.96 512 337.92 512 512 C343.04 512 174.08 512 0 512 C0 343.04 0 174.08 0 0 Z " fill="#2461ED" transform="translate(0,0)"/>
<path d="M0 0 C3.8920239 2.38445528 7.84033318 4.50715603 11.93774414 6.52197266 C17.89955452 9.46338173 23.60861537 12.73128335 29.32055664 16.12744141 C37.84627389 21.15151277 46.42312922 26.06590208 55.07055664 30.87744141 C64.17234765 35.94743053 73.19724257 41.12278678 82.15014648 46.45068359 C84.87294692 48.06652921 87.60526564 49.66594815 90.3371582 51.26635742 C104.50413256 59.571984 118.58383893 68.02163679 132.57055664 76.62744141 C133.45259766 77.16731689 134.33463867 77.70719238 135.2434082 78.26342773 C147.88976518 86.07824673 147.88976518 86.07824673 150.13305664 91.62744141 C150.79933078 96.94138393 150.82817005 101.21146964 148.44555664 106.06494141 C144.91241607 109.98004312 141.67264285 113.3922192 136.16024715 113.75854391 C135.40324447 113.76141662 134.64624179 113.76428934 133.86629963 113.76724911 C132.99092779 113.77294035 132.11555594 113.77863159 131.21365768 113.78449529 C130.25122514 113.78567517 129.2887926 113.78685505 128.29719543 113.78807068 C127.27530504 113.7931585 126.25341465 113.79824632 125.20055789 113.80348831 C121.75984596 113.81924481 118.31915509 113.82774629 114.87841797 113.83618164 C112.41807928 113.84571746 109.95774194 113.8556085 107.49740601 113.86582947 C100.10219666 113.89453136 92.7069876 113.91429955 85.311744 113.93122181 C83.22276281 113.93601754 81.13378213 113.94100077 79.04480147 113.94602704 C66.07059514 113.97699822 53.09638432 114.00368154 40.12215137 114.02044582 C37.11724146 114.02439528 34.11233163 114.02839828 31.10742188 114.0324707 C30.36057256 114.03347906 29.61372324 114.03448743 28.84424212 114.03552634 C16.74763158 114.05253073 4.65122571 114.09363777 -7.44528493 114.14449369 C-19.86651422 114.19628493 -32.2876383 114.22539001 -44.70897466 114.23264271 C-51.68233785 114.23730301 -58.65536584 114.25203329 -65.62862206 114.29238701 C-72.18926022 114.33030704 -78.74943109 114.3376768 -85.31019974 114.32438087 C-87.71763839 114.32443489 -90.12510213 114.33475958 -92.53244591 114.35613251 C-95.82104414 114.38376765 -99.10754887 114.37432418 -102.39616394 114.35569763 C-103.34744287 114.37249256 -104.2987218 114.38928749 -105.27882737 114.40659136 C-112.04007172 114.31098079 -116.04777568 112.38015992 -120.86694336 107.62744141 C-124.45863558 102.68886461 -124.78691159 97.53514027 -123.86694336 91.62744141 C-122.09122389 87.42749157 -119.71270767 83.70073488 -117.24194336 79.87744141 C-116.55753174 78.78109375 -115.87312012 77.68474609 -115.16796875 76.55517578 C-113.08730854 73.23302859 -110.97801293 69.9303172 -108.86694336 66.62744141 C-107.7512071 64.84251532 -106.63775237 63.05616008 -105.52709961 61.26806641 C-92.76936944 40.84017542 -79.42151069 20.65220799 -65.49194336 1.00244141 C-65.02393311 0.32987305 -64.55592285 -0.34269531 -64.07373047 -1.03564453 C-45.75605168 -26.39198461 -21.54061364 -13.2301833 0 0 Z " fill="#FDFEFE" transform="translate(242.866943359375,270.37255859375)"/>
<path d="M0 0 C0.9779746 -0.0082078 1.9559492 -0.0164156 2.96355939 -0.02487212 C6.24379949 -0.04856396 9.52369629 -0.050772 12.80401611 -0.05293274 C15.15465932 -0.06518215 17.50529652 -0.07863423 19.85592651 -0.09320068 C26.24446713 -0.12828271 32.63290439 -0.14351498 39.0215292 -0.15303779 C43.01289336 -0.15961076 47.00423004 -0.16995476 50.99558258 -0.18154335 C62.05326295 -0.21329636 73.11092404 -0.24000221 84.16865158 -0.24629498 C85.22958214 -0.24690568 85.22958214 -0.24690568 86.31194563 -0.24752872 C87.74569972 -0.2483364 89.17945381 -0.24914212 90.61320791 -0.2499459 C91.68073902 -0.25055427 91.68073902 -0.25055427 92.76983643 -0.25117493 C93.83867529 -0.2517779 93.83867529 -0.2517779 94.92910686 -0.25239304 C106.47213707 -0.25988089 118.0147003 -0.30435023 129.55756173 -0.36503234 C141.4172663 -0.42687795 153.27673835 -0.45865545 165.13660741 -0.46012241 C171.79201868 -0.46162194 178.44692182 -0.47663087 185.10219574 -0.52293968 C191.36351367 -0.56558149 197.62371011 -0.56997386 203.88511276 -0.54514503 C206.18087033 -0.54255857 208.47669063 -0.55360933 210.77230453 -0.579422 C230.27881245 -0.78555181 230.27881245 -0.78555181 236.15881348 4.16183472 C240.02125894 8.47808105 241.95683052 13.28764767 241.79376221 19.1348114 C240.83913107 24.01670932 237.90561562 28.07537357 235.28546143 32.22709656 C234.68491943 33.20831482 234.08437744 34.18953308 233.46563721 35.20048523 C231.77709202 37.94980663 230.06685296 40.6841807 228.34796143 43.41459656 C227.67635986 44.49740906 227.0047583 45.58022156 226.31280518 46.69584656 C224.68508611 49.28739928 223.02072602 51.85190642 221.34796143 54.41459656 C220.58025765 55.60941036 219.81340154 56.80476906 219.04718018 58.00053406 C180.57798255 117.92356667 180.57798255 117.92356667 165.28546143 124.78959656 C152.65010703 127.47796983 142.33178749 121.75185137 131.66046143 115.47709656 C129.6394637 114.31105996 127.61728984 113.14705992 125.59405518 111.98490906 C124.56393311 111.39226257 123.53381104 110.79961609 122.47247314 110.18901062 C117.43367858 107.32747296 112.32893004 104.59138028 107.22296143 101.85209656 C89.11448406 92.10014418 71.37164852 81.72074276 53.62432861 71.3301239 C50.78339441 69.66917236 47.94009814 68.01241063 45.09550476 66.35774231 C29.29910075 57.16672305 13.65212844 47.77410356 -1.86883545 38.12382507 C-5.40603881 35.95154782 -8.98379063 33.85132067 -12.574646 31.76908875 C-16.00983666 29.52929114 -18.26101996 27.30249358 -19.65203857 23.41459656 C-20.55819717 17.44150115 -20.94370083 11.48072754 -17.46453857 6.28959656 C-12.58849354 0.31450646 -7.22053151 -0.02594899 0 0 Z " fill="#FDFEFE" transform="translate(148.65203857421875,127.58540344238281)"/>
</svg>
